<svg width="88" height="112" fill="none" xmlns="http://www.w3.org/2000/svg"><g clip-path="url(#a)"><mask id="b" fill="#fff"><path d="M0-.687v88.366L43.98 112 88 87.677V-.687"/></mask><path d="M0-.687v88.366L43.98 112 88 87.677V-.687" fill="#fff"/><path d="M0-.187h88v-1H0v1Zm0 87.866h-1v.59l.516.285.484-.875ZM43.98 112l-.483.875.484.268.483-.268-.483-.875ZM88 87.677l.484.875.516-.285v-.59h-1ZM-1-.687v88.366h2V-.687h-2Zm.516 89.24 43.98 24.322.969-1.75L.484 86.804l-.968 1.75Zm44.949 24.322 44.019-24.323-.968-1.75-44.019 24.323.968 1.75ZM89 87.677V-.687h-2v88.364h2Z" fill="#BC934A" mask="url(#b)"/><path d="M48.667 25.618c-.31 0-.58.21-.661.512l-2.799 17.1 5.278-.065 3.583-16.646a.69.69 0 0 0-.652-.9h-4.75Z" fill="url(#c)"/><path d="M39.45 25.684 35.867 42.33a.69.69 0 0 0 .652.9h4.749c.31 0 .58-.21.661-.51l3.057-18.59-5.536 1.554Z" fill="url(#d)"/><path d="M19.433 42.33c-.143.445.187.9.651.9h4.749c.31 0 .58-.21.66-.51l2.8-17.102-4.925-1.487-3.935 18.199Z" fill="url(#e)"/><path d="M19.683 22.466c5.713 2.11 9.874 7.783 11.71 11.958.356.807.95.582 1.228.23 2.724-3.44 10.948-11.635 20.26-11.576 7.83.05 10.223 4.768 9.02 9.402-2.738 10.55-13.97 5.631-14.604 5.337l-2.09 5.413s18.979 5.808 22.561-9.982c1.79-7.892-3.039-15.314-13.852-15.314-9.83 0-16.43 5.342-21.296 9.316-2.764-2.637-7.261-5.57-12.931-5.493-.395.006-.376.572-.006.709ZM72.209 40.889c0 1.366-1.1 2.473-2.456 2.473a2.465 2.465 0 0 1-2.456-2.473c0-1.366 1.1-2.474 2.456-2.474a2.465 2.465 0 0 1 2.456 2.474Z" fill="red"/><path d="M37.678 97.492v-2.914l-.61.214-.266-.615.982-.427h.85v3.742h-.956ZM41.766 96.048a4.17 4.17 0 0 1-.313.054c-.093.014-.19.027-.295.038-.105.01-.203.016-.295.016h-.371c-.241 0-.434-.073-.58-.22-.145-.146-.217-.34-.217-.583v-.695c0-.324.082-.566.245-.724.163-.159.417-.238.764-.238h1.008c.347 0 .602.08.765.237.163.158.244.398.244.721v1.864c0 .348-.082.603-.244.767-.163.163-.418.244-.764.244h-.566c-.203 0-.394-.016-.57-.048-.206 0-.411-.014-.616-.043v-.723l.578.06H41.5a.265.265 0 0 0 .194-.07.251.251 0 0 0 .072-.19v-.467Zm0-1.284c0-.212-.107-.32-.32-.32h-.477c-.212 0-.319.106-.319.317v.45c0 .053.018.097.054.132a.18.18 0 0 0 .133.053h.514c.078 0 .147-.004.207-.012.071-.009.14-.02.208-.032v-.588ZM45.747 96.048a4.18 4.18 0 0 1-.313.054c-.092.014-.19.027-.295.038-.104.01-.203.016-.294.016h-.372c-.24 0-.433-.073-.579-.22-.145-.146-.218-.34-.218-.583v-.695c0-.324.082-.566.245-.724.163-.159.417-.238.764-.238h1.009c.347 0 .601.08.764.237.163.158.244.398.244.721v1.864c0 .348-.081.603-.244.767-.163.163-.417.244-.764.244h-.566c-.203 0-.393-.016-.57-.048-.206 0-.41-.014-.616-.043v-.723l.579.06h.96a.265.265 0 0 0 .194-.07.253.253 0 0 0 .072-.19v-.467Zm0-1.284c0-.212-.106-.32-.319-.32h-.477c-.212 0-.319.106-.319.317v.45c0 .053.018.097.054.132.035.036.08.053.132.053h.515c.078 0 .147-.004.207-.012.07-.009.14-.02.207-.032v-.588ZM50.418 94.926a.95.95 0 0 1-.18.566 1.287 1.287 0 0 1-.202.22 4.124 4.124 0 0 1-.255.203l-1.141.829h1.778v.748h-2.866v-1.016l1.91-1.39v-.267c0-.214-.105-.321-.318-.321h-1.486v-.748h1.699c.371 0 .641.085.809.254.168.17.252.441.252.815v.107ZM20.585 87.17l-.743 1.337h-.743l-.744-1.338v2.086H17.4v-3.742h1.008l1.062 1.978 1.062-1.978h1.008v3.742h-.955V87.17ZM26 89.254h-.957v-1.229h-.716l-.664 1.23h-1.008l.69-1.283c-.226-.054-.39-.163-.488-.326-.1-.164-.15-.394-.15-.69v-.374c0-.374.085-.647.253-.816.168-.169.438-.254.81-.254H26v3.742Zm-2.337-2.298c0 .213.107.32.32.32h1.06v-1.015h-1.06c-.213 0-.32.107-.32.321v.374ZM28.175 89.271c-.346 0-.601-.081-.764-.243-.163-.163-.244-.417-.244-.762V86.57c0-.37.084-.64.252-.807.168-.168.438-.251.81-.251h1.91v.748h-1.698c-.212 0-.319.106-.319.32v1.702c0 .082.024.147.072.194a.26.26 0 0 0 .194.072H29.187a.898.898 0 0 0 .284-.045h.668v.698a3.71 3.71 0 0 1-.706.07h-1.258ZM34.546 88.24c0 .374-.084.645-.252.815-.168.169-.438.254-.81.254h-1.327c-.372 0-.642-.085-.81-.254-.168-.17-.252-.442-.252-.816v-1.71c0-.375.084-.647.253-.816.167-.17.437-.255.809-.255h1.327c.372 0 .642.086.81.255.168.17.252.44.252.815v1.711Zm-.956-1.712c0-.214-.106-.321-.319-.321h-.902c-.212 0-.318.107-.318.321v1.711c0 .214.106.32.318.32h.902c.213 0 .32-.106.32-.32v-1.71ZM37.943 87.357l1.035 1.898H37.97l-.823-1.524h-.477v1.524h-.956v-3.743h.956v1.47h.477l.53-1.015c.079-.15.175-.272.29-.367a.697.697 0 0 1 .454-.142 1.92 1.92 0 0 1 .33.027c.053.01.102.02.148.027v.722h-.212c-.053 0-.101.017-.144.05a.389.389 0 0 0-.096.11l-.504.963ZM43.278 88.24c0 .374-.084.645-.252.815-.168.169-.438.254-.81.254H40.89c-.371 0-.641-.085-.81-.254-.167-.17-.251-.442-.251-.816v-1.71c0-.375.084-.647.252-.816.168-.17.438-.255.81-.255h1.327c.37 0 .64.086.81.255.167.17.251.44.251.815v1.711Zm-.956-1.712c0-.214-.105-.321-.318-.321h-.902c-.213 0-.32.107-.32.321v1.711c0 .214.107.32.32.32h.902c.212 0 .318-.106.318-.32v-1.71ZM47.631 87.17l-.743 1.337h-.743l-.743-1.338v2.086h-.956v-3.742h1.009l1.061 1.978 1.062-1.978h1.009v3.742h-.956V87.17ZM50.816 86.956h1.274c.372 0 .642.085.81.254.168.169.252.44.252.816v.16c0 .374-.084.646-.252.815-.168.17-.438.254-.81.254h-2.23v-3.742h2.947v.748h-1.99v.695Zm1.38 1.07c0-.214-.105-.322-.318-.322h-1.062v.802h1.062c.212 0 .319-.106.319-.32v-.16ZM57.505 89.255h-.956v-2.3l-1.274 2.3h-1.008v-3.742h.955v2.298l1.274-2.299h1.009v3.743ZM62.017 89.255h-.955V87.73h-1.328v1.524h-.955v-3.742h.955v1.47h1.328v-1.47h.955v3.742ZM63.954 89.255H62.92l1.406-3.742h1.062l1.407 3.742H65.76l-.239-.668h-1.327l-.24.668Zm.478-1.363h.85l-.426-1.257-.424 1.257ZM69.13 89.255h-.955V86.26H67.06v-.748h3.186v.748H69.13v2.994Z" fill="#969696"/><path d="M17.127 67.282h-6.121l-.291 4.815a3.38 3.38 0 0 1-.192.887 2.652 2.652 0 0 1-.508.875h-.757v3.17h1.982l.117-1.526h4.546l.117 1.526h1.983v-3.17h-.875v-6.576h-.001Zm-2.099 6.577h-2.973c.109-.165.206-.349.291-.552.21-.486.327-.967.35-1.445l.176-2.936h2.156v4.933ZM21.885 72.332v-5.05h-2.099v8.22h2.215l2.799-5.05v5.05h2.1v-8.22h-2.216l-2.799 5.05ZM34.006 70.511H31.09v-3.228h-2.1v8.22h2.1v-3.347h2.915v3.347h2.099v-8.22h-2.1v3.228ZM40.138 67.283l-3.09 8.22h2.274l.525-1.468h2.915l.524 1.468h2.274l-3.09-8.22h-2.332Zm.233 5.225.934-2.76.932 2.76H40.37ZM48.92 67.282c-.815 0-1.408.186-1.778.558-.369.372-.553.969-.553 1.79v3.758c0 .768.178 1.332.536 1.692.358.36.918.54 1.68.54 1.142 0 2.58-.078 4.314-.235V73.8c-.506.032-.927.059-1.265.082-.339.024-.615.04-.829.047l-.634.024a33.768 33.768 0 0 1-1.144.024.543.543 0 0 1-.402-.16.582.582 0 0 1-.158-.428V69.63c0-.47.233-.704.7-.704h2.2l.143.87h1.389v-2.514H48.92ZM54.122 68.927h2.448v6.576h2.099v-6.576h2.448v-1.645h-6.995v1.645ZM64.555 72.332v-5.05h-2.1v8.22h2.216l2.798-5.05v5.05h2.1v-8.22h-2.216l-2.798 5.05ZM73.862 67.283c-.816 0-1.41.185-1.779.557-.369.372-.553.969-.553 1.79v.823c0 .65.109 1.155.326 1.515.218.36.576.599 1.073.717l-1.516 2.818h2.216l1.457-2.702h1.574v2.702h2.099v-8.22h-4.897Zm2.799 3.874h-2.332c-.467 0-.7-.235-.7-.704v-.822c0-.47.233-.704.7-.704h2.332v2.23ZM22.424 61.881l1.633-2.936v4.58h2.098v-8.22H23.94l-2.332 4.346-2.332-4.346h-2.215v8.22h2.098v-4.58l1.633 2.936h1.632ZM30.133 63.525l1.457-2.7h1.574v2.7h2.1v-8.22h-4.898c-.816 0-1.409.185-1.778.557-.37.373-.554.97-.554 1.791v.823c0 .65.11 1.154.327 1.515.217.36.575.598 1.072.715l-1.515 2.819h2.215Zm0-5.871c0-.47.233-.705.7-.705h2.331v2.231h-2.331c-.467 0-.7-.234-.7-.704v-.822ZM39.474 63.644c1.144 0 2.581-.079 4.315-.236v-1.585c-.506.03-.927.058-1.266.082-.338.024-.614.04-.828.047l-.635.024a30.206 30.206 0 0 1-1.143.024.544.544 0 0 1-.402-.159.582.582 0 0 1-.158-.43v-3.757c0-.47.233-.705.7-.705h2.2l.143.871h1.389v-2.515H39.59c-.816 0-1.409.186-1.778.558-.37.372-.554.969-.554 1.79v3.759c0 .767.179 1.33.536 1.691.358.36.918.54 1.68.54ZM47.903 60.179h2.914v3.346h2.1v-8.22h-2.1v3.23h-2.914v-3.23h-2.1v8.22h2.1V60.18ZM56.902 62.058h2.915l.525 1.467h2.273l-3.09-8.22h-2.331l-3.09 8.22h2.273l.525-1.467Zm1.458-4.287.932 2.76h-1.865l.933-2.76ZM64.28 55.862c-.369.373-.553.97-.553 1.791v.823c0 .65.109 1.155.326 1.515.218.36.576.599 1.073.716l-1.516 2.818h2.215l1.457-2.7h1.575v2.7h2.099v-8.22h-4.898c-.815 0-1.409.186-1.778.557Zm4.577 1.087v2.231h-2.332c-.467 0-.7-.234-.7-.704v-.822c0-.47.233-.705.7-.705h2.332Z" fill="#1C1C1C"/></g><defs><linearGradient id="c" x1="49.654" y1="37.791" x2="49.654" y2="26.994" gradientUnits="userSpaceOnUse"><stop stop-color="red"/><stop offset="1" stop-color="#C00505"/></linearGradient><linearGradient id="d" x1="40.41" y1="43.257" x2="40.41" y2="25.622" gradientUnits="userSpaceOnUse"><stop stop-color="red"/><stop offset="1" stop-color="#C00505"/></linearGradient><linearGradient id="e" x1="23.846" y1="43.257" x2="23.846" y2="25.622" gradientUnits="userSpaceOnUse"><stop stop-color="red"/><stop offset="1" stop-color="#C00505"/></linearGradient><clipPath id="a"><path fill="#fff" d="M0 0h88v112H0z"/></clipPath></defs></svg>